<?xml version="1.0" encoding="iso-8859-1"?>
<!-- Generator: Adobe Illustrator 16.0.0, SVG Export Plug-In . SVG Version: 6.00 Build 0)  -->
<!DOCTYPE svg PUBLIC "-//W3C//DTD SVG 1.1//EN" "http://www.w3.org/Graphics/SVG/1.1/DTD/svg11.dtd">
<svg xmlns="http://www.w3.org/2000/svg" xmlns:xlink="http://www.w3.org/1999/xlink" version="1.1" id="Capa_1" x="0px" y="0px" width="32px" height="32px" viewBox="0 0 512 512" style="enable-background:new 0 0 512 512;" xml:space="preserve">
<g>
	<path d="M206.115,255.958c-23.854-12.259-47.043-18.479-68.94-18.479c-2.978,0-5.976,0.09-8.974,0.354   c-27.94,2.312-53.461,9.684-69.875,15.414c-4.354,1.599-8.817,3.288-13.415,5.151L0,414.097   c30.851-11.416,58.146-16.97,83.135-16.97c40.423,0,69.764,15.104,93.996,30.652c11.481-38.96,39.022-133.046,47.241-161.162   C218.397,262.976,212.334,259.333,206.115,255.958z M264.174,295.536L218.951,452.61c13.416,7.686,58.549,32.023,93.105,32.023   c27.895,0,59.125-7.146,95.416-21.896l43.18-150.988c-29.316,9.461-57.438,14.26-83.732,14.26   C318.945,326.01,285.363,310.461,264.174,295.536z M146.411,184.396c38.559,0.399,67.076,15.104,90.708,30.251l46.376-158.672   c-9.772-5.598-35.403-19.547-53.929-24.3c-12.193-2.842-25.01-4.308-38.602-4.308c-25.898,0.488-54.194,6.973-86.444,19.9   L60.3,202.564c32.404-12.218,60.322-18.17,86.043-18.17C146.366,184.396,146.411,184.396,146.411,184.396z M512,99.062   c-29.406,11.416-58.104,17.233-85.514,17.233c-45.844,0-79.646-15.901-101.547-31.183L278.964,244.23   c30.874,19.854,64.146,29.939,99.062,29.939c28.475,0,57.971-6.84,87.73-20.344l-0.092-1.111l1.867-0.443L512,99.062z" fill="#FEFEFE"/>
</g>
</svg>
